<?xml version="1.0" standalone="no"?>
<!DOCTYPE svg PUBLIC "-//W3C//DTD SVG 20010904//EN"
 "http://www.w3.org/TR/2001/REC-SVG-20010904/DTD/svg10.dtd">
<svg version="1.0" xmlns="http://www.w3.org/2000/svg"
 width="1357.000000pt" height="1357.000000pt" viewBox="0 0 1357.000000 1357.000000"
 preserveAspectRatio="xMidYMid meet">
<metadata>
Created by potrace 1.11, written by Peter Selinger 2001-2013
</metadata>
<g transform="translate(0.000000,1357.000000) scale(0.100000,-0.100000)"
fill="#000000" stroke="none">
<path d="M1298 10049 c-4 -12 5 -103 16 -162 53 -290 297 -556 593 -643 94
-28 108 -29 608 -38 121 -3 234 -7 250 -11 276 -57 462 -151 645 -327 194
-187 327 -415 381 -653 18 -81 19 -87 25 -155 15 -159 6 -313 -27 -450 -58
-239 -164 -424 -344 -606 -201 -203 -374 -295 -671 -359 -16 -4 -121 -8 -234
-11 -534 -11 -533 -11 -611 -32 -145 -39 -271 -113 -382 -225 -152 -152 -229
-322 -250 -550 l-5 -48 732 2 c402 0 758 5 791 10 33 4 80 11 104 14 77 10
253 52 351 85 123 41 351 152 465 227 210 138 434 349 586 553 132 178 242
387 299 575 35 113 66 241 75 310 24 179 25 194 26 345 0 128 -6 244 -16 300
-2 14 -7 43 -10 65 -68 503 -365 995 -810 1344 -122 95 -107 85 -240 165 -75
45 -162 89 -270 136 -51 23 -175 62 -263 84 -95 24 -127 31 -207 42 -22 3 -51
8 -65 12 -14 3 -365 7 -781 9 -587 3 -758 1 -761 -8z"/>
<path d="M4950 7910 l0 -2152 75 7 c386 35 700 297 804 674 30 107 33 168 35
610 l1 406 290 -1 c251 -1 303 -4 385 -22 153 -32 185 -43 301 -101 342 -172
595 -491 698 -883 45 -173 131 -319 252 -430 92 -84 127 -107 243 -163 116
-57 254 -92 367 -94 l86 -2 -3 273 c-1 150 -5 296 -8 323 -47 410 -182 751
-430 1085 -72 97 -289 326 -348 368 -18 12 -48 35 -66 51 l-33 28 78 64 c135
111 274 255 374 389 211 284 341 584 403 930 24 138 29 210 31 498 l2 272 -24
7 c-37 9 -170 -5 -248 -25 -313 -82 -570 -334 -662 -647 -68 -230 -113 -337
-199 -466 -55 -83 -176 -221 -239 -274 -27 -22 -53 -45 -59 -51 -21 -20 -132
-91 -196 -126 -87 -47 -228 -94 -342 -115 -72 -13 -156 -17 -373 -17 l-280 -1
-1 420 c-2 514 -5 550 -45 681 -78 255 -313 497 -567 585 -81 28 -136 39 -224
46 l-78 6 0 -2153z"/>
<path d="M10438 10055 c-2 -2 -26 -6 -53 -10 -570 -67 -1034 -329 -1293 -729
-137 -211 -237 -507 -258 -763 -4 -42 -8 -89 -9 -107 -2 -17 -4 -58 -5 -91
l-2 -60 -15 35 c-21 47 -29 233 -14 340 12 92 13 100 31 175 6 28 13 57 15 65
36 155 167 431 274 575 51 68 59 84 30 59 -82 -71 -110 -97 -182 -172 -223
-227 -324 -454 -325 -729 0 -127 8 -201 37 -313 31 -116 100 -293 159 -402 36
-66 52 -83 52 -53 0 31 93 182 168 271 108 130 242 252 442 399 212 157 302
288 317 462 17 203 -112 384 -366 512 l-43 23 50 33 c185 125 557 262 827 304
122 19 147 21 270 21 179 0 272 -15 334 -52 164 -98 336 -242 412 -345 243
-327 146 -738 -304 -1298 -80 -99 -103 -126 -203 -234 -105 -114 -166 -233
-204 -393 -25 -108 -32 -178 -32 -307 -1 -90 3 -136 17 -241 2 -15 15 -91 20
-120 7 -37 46 -181 65 -240 56 -175 114 -299 88 -187 -10 41 -6 249 6 296 47
198 149 375 302 523 38 36 128 117 199 179 173 150 396 375 472 476 134 180
200 331 221 513 8 67 7 322 -1 408 -9 88 52 -23 82 -148 76 -323 59 -600 -51
-825 -39 -78 -125 -213 -170 -267 -13 -15 -41 -48 -63 -74 -22 -27 -94 -109
-160 -184 -209 -236 -275 -328 -376 -530 -104 -208 -199 -507 -161 -511 4 0
15 -2 24 -4 39 -7 252 47 353 90 132 57 172 76 260 124 101 54 260 159 317
209 128 112 263 292 352 470 15 28 28 52 30 52 7 0 -47 -138 -85 -219 -180
-373 -519 -660 -979 -826 -131 -48 -323 -98 -425 -111 -22 -3 -65 -9 -95 -14
-58 -10 -407 -6 -450 4 -13 3 -41 8 -62 11 -180 27 -439 132 -623 254 -484
319 -905 939 -1147 1688 -24 73 -46 133 -50 133 -5 0 -8 -19 -9 -42 -1 -24 -3
-56 -4 -73 -5 -45 -5 -283 0 -335 9 -94 17 -166 20 -180 1 -8 5 -31 9 -50 115
-694 656 -1353 1318 -1606 87 -33 279 -86 358 -98 19 -3 48 -8 64 -11 61 -9
195 -18 286 -19 347 -1 640 64 924 207 392 196 746 555 950 963 88 174 171
428 192 584 3 25 8 54 10 65 27 136 24 480 -5 670 -60 394 -236 771 -496 1065
-363 411 -757 627 -1285 705 -49 8 -346 16 -352 10z"/>
<path d="M1430 8272 c0 -184 95 -395 242 -540 121 -118 241 -187 397 -228 84
-22 98 -22 561 -21 l475 2 59 28 c162 75 248 211 248 387 0 191 -117 354 -290
406 -52 16 -134 17 -874 18 l-818 1 0 -53z"/>
<path d="M1630 5563 c-147 -37 -265 -164 -315 -337 -16 -54 -17 -137 -17 -900
l0 -841 33 1 c140 2 306 92 384 206 19 29 45 82 57 118 20 62 22 86 24 484 2
230 4 420 6 421 2 2 61 -148 132 -333 72 -186 142 -359 156 -385 37 -67 120
-149 188 -185 79 -42 151 -55 263 -50 79 4 105 10 163 36 87 40 142 85 190
154 41 61 54 91 202 477 59 152 109 279 113 283 3 4 6 -178 7 -405 0 -400 1
-414 23 -486 58 -190 214 -310 435 -337 l41 -6 -1 854 -1 853 -22 65 c-79 228
-257 351 -461 319 -133 -21 -235 -106 -304 -251 -60 -128 -53 -111 -246 -596
-95 -238 -173 -432 -175 -430 -4 5 -97 238 -320 803 -33 82 -101 239 -117 267
-91 162 -270 244 -438 201z"/>
<path d="M7037 5574 c-1 -1 -27 -5 -57 -8 -242 -25 -456 -155 -596 -361 -41
-61 -81 -151 -106 -240 -21 -78 -22 -93 -24 -763 l-2 -684 38 6 c138 19 244
68 325 150 66 67 98 124 123 219 l17 61 200 2 c247 2 304 10 420 58 118 49
181 92 275 186 84 83 102 108 148 200 60 122 83 210 87 335 10 286 -122 541
-365 703 -64 43 -187 98 -240 107 -18 3 -37 8 -41 10 -10 7 -196 24 -202 19z
m164 -425 c167 -53 279 -192 292 -366 16 -196 -116 -379 -305 -423 -24 -5
-143 -10 -266 -10 l-223 0 1 229 c1 151 6 246 14 278 48 182 200 302 382 303
39 0 86 -5 105 -11z"/>
<path d="M8569 5575 c-3 -3 -26 -8 -50 -11 -148 -21 -300 -121 -372 -245 -62
-108 -60 -75 -62 -976 l-2 -823 28 0 c43 0 142 34 212 74 161 90 397 310 627
585 25 30 50 59 55 65 6 6 26 31 45 56 19 25 40 50 46 55 6 6 35 42 65 80 29
39 56 72 59 75 3 3 21 25 40 50 70 91 203 250 209 250 3 0 6 -190 7 -422 0
-233 4 -445 8 -472 16 -112 96 -234 198 -304 56 -38 177 -80 244 -84 l49 -3 0
740 c0 407 -3 774 -7 815 -17 159 -61 269 -138 346 -78 77 -179 124 -304 139
l-51 7 -75 -97 c-41 -53 -118 -152 -170 -219 -52 -67 -144 -186 -205 -265 -60
-79 -117 -151 -125 -161 -8 -10 -69 -89 -135 -175 -66 -87 -134 -173 -151
-192 l-31 -36 1 562 c1 526 -1 601 -15 586z"/>
<path d="M10613 5554 c-81 -17 -184 -68 -229 -113 -54 -53 -110 -143 -136
-219 l-23 -67 -1 -817 c-1 -742 1 -818 15 -818 48 1 165 34 226 65 135 67 214
171 245 320 6 31 12 132 13 223 l2 167 443 1 c243 0 442 -2 443 -5 0 -3 2 -87
3 -186 3 -202 15 -262 71 -350 87 -137 209 -209 390 -231 l40 -5 -1 808 c0
740 -2 813 -18 868 -22 75 -78 180 -119 223 -72 75 -192 133 -307 147 l-55 7
0 -386 c0 -212 -2 -386 -5 -387 -7 -1 -851 -1 -871 0 -14 1 -16 40 -17 374 0
204 -1 378 -1 385 -1 15 -27 14 -108 -4z"/>
<path d="M4120 5487 c0 -136 103 -315 225 -392 105 -66 158 -76 415 -79 186
-3 220 -10 269 -56 22 -22 71 -117 86 -167 l6 -23 -298 0 c-164 -1 -320 -3
-348 -5 -243 -22 -484 -252 -519 -495 -8 -53 -9 -214 -1 -250 14 -72 20 -90
46 -148 77 -172 251 -312 429 -348 19 -4 212 -7 429 -8 l393 -2 -6 66 c-23
256 -204 421 -476 436 -198 10 -250 17 -299 42 -74 37 -64 83 27 125 124 56
260 80 472 80 113 1 159 -5 234 -32 123 -43 187 -118 266 -311 65 -162 97
-219 153 -275 55 -55 130 -95 212 -114 47 -11 255 -25 255 -17 0 4 -77 224
-202 581 -38 110 -74 211 -78 225 -7 22 -49 143 -161 460 -17 47 -41 117 -54
156 -55 162 -115 263 -213 358 -109 106 -216 170 -341 205 -65 18 -106 20
-496 21 l-425 1 0 -34z"/>
</g>
</svg>
